# xmcd
#
# Track frame offsets: 
#        150
#        14307
#        37385
#        62835
#        77020
#        100092
#
# Disc length: 1670 seconds
#
# Revision: 0
# Processed by: cddbd v1.5.2PL0 Copyright (c) Steve Scherf et al.
# Submitted via: ExactAudioCopy v1.0b1
#
DISCID=47068406
DTITLE=BoA - Milestone
DYEAR=2011
DGENRE=Pop
TTITLE0=Milestone
TTITLE1=I SEE ME
TTITLE2=メリクリ ～BEST and USA Version～
TTITLE3=Milestone (INST)
TTITLE4=I SEE ME (INST)
TTITLE5=メリクリ ～BEST and USA Version～ (INST)
EXTD=
EXTT0=
EXTT1=
EXTT2=
EXTT3=
EXTT4=
EXTT5=
PLAYORDER=
